<mxfile host="app.diagrams.net" agent="Mozilla/5.0 (Windows NT 10.0; Win64; x64) AppleWebKit/537.36 (KHTML, like Gecko) Chrome/137.0.0.0 Safari/537.36 Edg/137.0.0.0" version="26.1.0">
  <diagram name="Pagina-1" id="VTvX9KY6WrfDTRU-UeRG">
    <mxGraphModel grid="1" page="1" gridSize="10" guides="1" tooltips="1" connect="1" arrows="1" fold="1" pageScale="1" pageWidth="2339" pageHeight="3300" math="0" shadow="0">
      <root>
        <mxCell id="0" />
        <mxCell id="1" parent="0" />
        <mxCell id="l6JseUNvl6TW4gJyQg1F-18" value="Persona" style="swimlane;childLayout=stackLayout;horizontal=1;startSize=50;horizontalStack=0;rounded=1;fontSize=14;fontStyle=0;strokeWidth=2;resizeParent=0;resizeLast=1;shadow=0;dashed=0;align=center;arcSize=4;whiteSpace=wrap;html=1;" vertex="1" parent="1">
          <mxGeometry x="1260" y="50" width="160" height="150" as="geometry" />
        </mxCell>
        <mxCell id="l6JseUNvl6TW4gJyQg1F-19" value="CodiceFisc PK FK&lt;div&gt;Nome&lt;/div&gt;&lt;div&gt;Cognome&lt;/div&gt;&lt;div&gt;Mail&lt;/div&gt;&lt;div&gt;Password&lt;/div&gt;&lt;div&gt;Data di nascita&lt;/div&gt;" style="align=left;strokeColor=none;fillColor=none;spacingLeft=4;fontSize=12;verticalAlign=top;resizable=0;rotatable=0;part=1;html=1;" vertex="1" parent="l6JseUNvl6TW4gJyQg1F-18">
          <mxGeometry y="50" width="160" height="100" as="geometry" />
        </mxCell>
        <mxCell id="l6JseUNvl6TW4gJyQg1F-22" value="" style="endArrow=classic;html=1;rounded=0;exitX=0.5;exitY=1;exitDx=0;exitDy=0;entryX=0;entryY=0.5;entryDx=0;entryDy=0;" edge="1" parent="1" source="l6JseUNvl6TW4gJyQg1F-19" target="l6JseUNvl6TW4gJyQg1F-23">
          <mxGeometry width="50" height="50" relative="1" as="geometry">
            <mxPoint x="1290" y="210" as="sourcePoint" />
            <mxPoint x="1460" y="290" as="targetPoint" />
            <Array as="points">
              <mxPoint x="1340" y="290" />
              <mxPoint x="1380" y="290" />
            </Array>
          </mxGeometry>
        </mxCell>
        <mxCell id="l6JseUNvl6TW4gJyQg1F-23" value="Dipendente" style="swimlane;childLayout=stackLayout;horizontal=1;startSize=50;horizontalStack=0;rounded=1;fontSize=14;fontStyle=0;strokeWidth=2;resizeParent=0;resizeLast=1;shadow=0;dashed=0;align=center;arcSize=4;whiteSpace=wrap;html=1;" vertex="1" parent="1">
          <mxGeometry x="1460" y="230" width="160" height="120" as="geometry" />
        </mxCell>
        <mxCell id="l6JseUNvl6TW4gJyQg1F-24" value="Ruolo&lt;div&gt;Ore di lavoro&lt;/div&gt;&lt;div&gt;Stipendio&lt;/div&gt;" style="align=left;strokeColor=none;fillColor=none;spacingLeft=4;fontSize=12;verticalAlign=top;resizable=0;rotatable=0;part=1;html=1;" vertex="1" parent="l6JseUNvl6TW4gJyQg1F-23">
          <mxGeometry y="50" width="160" height="70" as="geometry" />
        </mxCell>
        <mxCell id="l6JseUNvl6TW4gJyQg1F-26" value="" style="endArrow=none;html=1;rounded=0;exitX=1;exitY=0.5;exitDx=0;exitDy=0;entryX=0;entryY=0.5;entryDx=0;entryDy=0;" edge="1" parent="1" source="l6JseUNvl6TW4gJyQg1F-23">
          <mxGeometry relative="1" as="geometry">
            <mxPoint x="1390" y="310" as="sourcePoint" />
            <mxPoint x="1680" y="290" as="targetPoint" />
          </mxGeometry>
        </mxCell>
        <mxCell id="l6JseUNvl6TW4gJyQg1F-27" value=",1,1" style="text;html=1;align=center;verticalAlign=middle;whiteSpace=wrap;rounded=0;" vertex="1" parent="1">
          <mxGeometry x="1620" y="268" width="60" height="30" as="geometry" />
        </mxCell>
        <mxCell id="l6JseUNvl6TW4gJyQg1F-29" value="Manutenzione" style="swimlane;childLayout=stackLayout;horizontal=1;startSize=50;horizontalStack=0;rounded=1;fontSize=14;fontStyle=0;strokeWidth=2;resizeParent=0;resizeLast=1;shadow=0;dashed=0;align=center;arcSize=4;whiteSpace=wrap;html=1;" vertex="1" parent="1">
          <mxGeometry x="1860" y="215" width="160" height="150" as="geometry" />
        </mxCell>
        <mxCell id="l6JseUNvl6TW4gJyQg1F-30" value="IDmanutenzione PK&lt;div&gt;TipoIntervento&lt;/div&gt;&lt;div&gt;Costo&lt;/div&gt;&lt;div&gt;Data&lt;/div&gt;&lt;div&gt;&lt;div&gt;&lt;br&gt;&lt;/div&gt;&lt;/div&gt;" style="align=left;strokeColor=none;fillColor=none;spacingLeft=4;fontSize=12;verticalAlign=top;resizable=0;rotatable=0;part=1;html=1;" vertex="1" parent="l6JseUNvl6TW4gJyQg1F-29">
          <mxGeometry y="50" width="160" height="100" as="geometry" />
        </mxCell>
        <mxCell id="l6JseUNvl6TW4gJyQg1F-31" value="" style="endArrow=none;html=1;rounded=0;exitX=1;exitY=0.5;exitDx=0;exitDy=0;entryX=0;entryY=0.5;entryDx=0;entryDy=0;" edge="1" parent="1" target="l6JseUNvl6TW4gJyQg1F-29">
          <mxGeometry relative="1" as="geometry">
            <mxPoint x="1800" y="290" as="sourcePoint" />
            <mxPoint x="1630" y="320" as="targetPoint" />
          </mxGeometry>
        </mxCell>
        <mxCell id="l6JseUNvl6TW4gJyQg1F-33" value="Effettua" style="shape=rhombus;perimeter=rhombusPerimeter;whiteSpace=wrap;html=1;align=center;" vertex="1" parent="1">
          <mxGeometry x="1680" y="260" width="120" height="60" as="geometry" />
        </mxCell>
        <mxCell id="l6JseUNvl6TW4gJyQg1F-34" value="Eseguita" style="shape=rhombus;perimeter=rhombusPerimeter;whiteSpace=wrap;html=1;align=center;" vertex="1" parent="1">
          <mxGeometry x="1880" y="410" width="120" height="60" as="geometry" />
        </mxCell>
        <mxCell id="l6JseUNvl6TW4gJyQg1F-36" value="" style="endArrow=none;html=1;rounded=0;entryX=0.5;entryY=1;entryDx=0;entryDy=0;exitX=0.5;exitY=0;exitDx=0;exitDy=0;" edge="1" parent="1" source="l6JseUNvl6TW4gJyQg1F-34" target="l6JseUNvl6TW4gJyQg1F-30">
          <mxGeometry width="50" height="50" relative="1" as="geometry">
            <mxPoint x="1770" y="350" as="sourcePoint" />
            <mxPoint x="1820" y="300" as="targetPoint" />
          </mxGeometry>
        </mxCell>
        <mxCell id="l6JseUNvl6TW4gJyQg1F-38" value="Kart" style="swimlane;childLayout=stackLayout;horizontal=1;startSize=50;horizontalStack=0;rounded=1;fontSize=14;fontStyle=0;strokeWidth=2;resizeParent=0;resizeLast=1;shadow=0;dashed=0;align=center;arcSize=4;whiteSpace=wrap;html=1;" vertex="1" parent="1">
          <mxGeometry x="1865" y="530" width="150" height="120" as="geometry" />
        </mxCell>
        <mxCell id="l6JseUNvl6TW4gJyQg1F-39" value="Targa PK FK&lt;div&gt;Cilindrata&lt;/div&gt;&lt;div&gt;Serbatoio&lt;/div&gt;" style="align=left;strokeColor=none;fillColor=none;spacingLeft=4;fontSize=12;verticalAlign=top;resizable=0;rotatable=0;part=1;html=1;" vertex="1" parent="l6JseUNvl6TW4gJyQg1F-38">
          <mxGeometry y="50" width="150" height="70" as="geometry" />
        </mxCell>
        <mxCell id="l6JseUNvl6TW4gJyQg1F-40" value="Gestisce" style="shape=rhombus;perimeter=rhombusPerimeter;whiteSpace=wrap;html=1;align=center;" vertex="1" parent="1">
          <mxGeometry x="1480" y="410" width="120" height="60" as="geometry" />
        </mxCell>
        <mxCell id="l6JseUNvl6TW4gJyQg1F-41" value="" style="endArrow=none;html=1;rounded=0;entryX=0.5;entryY=1;entryDx=0;entryDy=0;" edge="1" parent="1" source="l6JseUNvl6TW4gJyQg1F-40" target="l6JseUNvl6TW4gJyQg1F-24">
          <mxGeometry width="50" height="50" relative="1" as="geometry">
            <mxPoint x="1610" y="500" as="sourcePoint" />
            <mxPoint x="1660" y="450" as="targetPoint" />
          </mxGeometry>
        </mxCell>
        <mxCell id="l6JseUNvl6TW4gJyQg1F-42" value="Socio" style="swimlane;childLayout=stackLayout;horizontal=1;startSize=50;horizontalStack=0;rounded=1;fontSize=14;fontStyle=0;strokeWidth=2;resizeParent=0;resizeLast=1;shadow=0;dashed=0;align=center;arcSize=4;whiteSpace=wrap;html=1;" vertex="1" parent="1">
          <mxGeometry x="1060" y="230" width="160" height="120" as="geometry" />
        </mxCell>
        <mxCell id="l6JseUNvl6TW4gJyQg1F-45" value="" style="endArrow=classic;html=1;rounded=0;entryX=1;entryY=0.5;entryDx=0;entryDy=0;" edge="1" parent="1" target="l6JseUNvl6TW4gJyQg1F-42">
          <mxGeometry width="50" height="50" relative="1" as="geometry">
            <mxPoint x="1340" y="200" as="sourcePoint" />
            <mxPoint x="1340" y="350" as="targetPoint" />
            <Array as="points">
              <mxPoint x="1340" y="290" />
            </Array>
          </mxGeometry>
        </mxCell>
        <mxCell id="l6JseUNvl6TW4gJyQg1F-46" value="Concessionaria" style="swimlane;childLayout=stackLayout;horizontal=1;startSize=50;horizontalStack=0;rounded=1;fontSize=14;fontStyle=0;strokeWidth=2;resizeParent=0;resizeLast=1;shadow=0;dashed=0;align=center;arcSize=4;whiteSpace=wrap;html=1;" vertex="1" parent="1">
          <mxGeometry x="1465" y="530" width="150" height="150" as="geometry" />
        </mxCell>
        <mxCell id="l6JseUNvl6TW4gJyQg1F-47" value="IDprodotto PK&lt;div&gt;Tipologia&lt;/div&gt;&lt;div&gt;QuantitÃ &lt;/div&gt;&lt;div&gt;Prezzo&lt;/div&gt;" style="align=left;strokeColor=none;fillColor=none;spacingLeft=4;fontSize=12;verticalAlign=top;resizable=0;rotatable=0;part=1;html=1;" vertex="1" parent="l6JseUNvl6TW4gJyQg1F-46">
          <mxGeometry y="50" width="150" height="100" as="geometry" />
        </mxCell>
        <mxCell id="l6JseUNvl6TW4gJyQg1F-48" value="" style="endArrow=none;html=1;rounded=0;entryX=0.5;entryY=1;entryDx=0;entryDy=0;exitX=0.5;exitY=0;exitDx=0;exitDy=0;" edge="1" parent="1" source="l6JseUNvl6TW4gJyQg1F-46" target="l6JseUNvl6TW4gJyQg1F-40">
          <mxGeometry width="50" height="50" relative="1" as="geometry">
            <mxPoint x="1590" y="500" as="sourcePoint" />
            <mxPoint x="1640" y="450" as="targetPoint" />
          </mxGeometry>
        </mxCell>
        <mxCell id="l6JseUNvl6TW4gJyQg1F-49" value="" style="endArrow=none;html=1;rounded=0;entryX=0.5;entryY=1;entryDx=0;entryDy=0;exitX=0.5;exitY=0;exitDx=0;exitDy=0;" edge="1" parent="1" source="l6JseUNvl6TW4gJyQg1F-38" target="l6JseUNvl6TW4gJyQg1F-34">
          <mxGeometry width="50" height="50" relative="1" as="geometry">
            <mxPoint x="1590" y="500" as="sourcePoint" />
            <mxPoint x="1640" y="450" as="targetPoint" />
          </mxGeometry>
        </mxCell>
        <mxCell id="l6JseUNvl6TW4gJyQg1F-52" value="Acquista" style="shape=rhombus;perimeter=rhombusPerimeter;whiteSpace=wrap;html=1;align=center;" vertex="1" parent="1">
          <mxGeometry x="1160" y="410" width="120" height="60" as="geometry" />
        </mxCell>
        <mxCell id="l6JseUNvl6TW4gJyQg1F-53" value="" style="endArrow=none;html=1;rounded=0;entryX=0.5;entryY=0;entryDx=0;entryDy=0;" edge="1" parent="1" target="l6JseUNvl6TW4gJyQg1F-52">
          <mxGeometry relative="1" as="geometry">
            <mxPoint x="1220" y="350" as="sourcePoint" />
            <mxPoint x="1590" y="470" as="targetPoint" />
          </mxGeometry>
        </mxCell>
        <mxCell id="l6JseUNvl6TW4gJyQg1F-54" value="" style="endArrow=none;html=1;rounded=0;exitX=0.5;exitY=1;exitDx=0;exitDy=0;entryX=0;entryY=0.25;entryDx=0;entryDy=0;" edge="1" parent="1" source="l6JseUNvl6TW4gJyQg1F-52" target="l6JseUNvl6TW4gJyQg1F-47">
          <mxGeometry width="50" height="50" relative="1" as="geometry">
            <mxPoint x="1480" y="490" as="sourcePoint" />
            <mxPoint x="1140" y="720" as="targetPoint" />
            <Array as="points">
              <mxPoint x="1220" y="605" />
            </Array>
          </mxGeometry>
        </mxCell>
        <mxCell id="l6JseUNvl6TW4gJyQg1F-55" value="Possiede" style="shape=rhombus;perimeter=rhombusPerimeter;whiteSpace=wrap;html=1;align=center;" vertex="1" parent="1">
          <mxGeometry x="1080" y="480" width="120" height="60" as="geometry" />
        </mxCell>
        <mxCell id="l6JseUNvl6TW4gJyQg1F-56" value="Appartiene" style="shape=rhombus;perimeter=rhombusPerimeter;whiteSpace=wrap;html=1;align=center;" vertex="1" parent="1">
          <mxGeometry x="1000" y="410" width="120" height="60" as="geometry" />
        </mxCell>
        <mxCell id="l6JseUNvl6TW4gJyQg1F-57" value="" style="endArrow=none;html=1;rounded=0;exitX=0.5;exitY=1;exitDx=0;exitDy=0;entryX=0.5;entryY=0;entryDx=0;entryDy=0;" edge="1" parent="1" source="l6JseUNvl6TW4gJyQg1F-42" target="l6JseUNvl6TW4gJyQg1F-55">
          <mxGeometry width="50" height="50" relative="1" as="geometry">
            <mxPoint x="1430" y="490" as="sourcePoint" />
            <mxPoint x="1480" y="440" as="targetPoint" />
          </mxGeometry>
        </mxCell>
        <mxCell id="l6JseUNvl6TW4gJyQg1F-58" value="" style="endArrow=none;html=1;rounded=0;exitX=0.5;exitY=1;exitDx=0;exitDy=0;entryX=0.5;entryY=1;entryDx=0;entryDy=0;" edge="1" parent="1" source="l6JseUNvl6TW4gJyQg1F-55" target="l6JseUNvl6TW4gJyQg1F-39">
          <mxGeometry width="50" height="50" relative="1" as="geometry">
            <mxPoint x="1430" y="490" as="sourcePoint" />
            <mxPoint x="2011.3333740234375" y="730" as="targetPoint" />
            <Array as="points">
              <mxPoint x="1140" y="730" />
              <mxPoint x="1940" y="730" />
            </Array>
          </mxGeometry>
        </mxCell>
        <mxCell id="l6JseUNvl6TW4gJyQg1F-59" value="1,N" style="text;html=1;align=center;verticalAlign=middle;whiteSpace=wrap;rounded=0;" vertex="1" parent="1">
          <mxGeometry x="1805" y="268" width="60" height="30" as="geometry" />
        </mxCell>
        <mxCell id="l6JseUNvl6TW4gJyQg1F-60" value="1,1" style="text;html=1;align=center;verticalAlign=middle;whiteSpace=wrap;rounded=0;" vertex="1" parent="1">
          <mxGeometry x="1922" y="380" width="60" height="30" as="geometry" />
        </mxCell>
        <mxCell id="l6JseUNvl6TW4gJyQg1F-61" value="1,1" style="text;html=1;align=center;verticalAlign=middle;whiteSpace=wrap;rounded=0;" vertex="1" parent="1">
          <mxGeometry x="1922" y="500" width="60" height="30" as="geometry" />
        </mxCell>
        <mxCell id="l6JseUNvl6TW4gJyQg1F-62" value="1,1" style="text;html=1;align=center;verticalAlign=middle;whiteSpace=wrap;rounded=0;" vertex="1" parent="1">
          <mxGeometry x="1123" y="532" width="60" height="30" as="geometry" />
        </mxCell>
        <mxCell id="l6JseUNvl6TW4gJyQg1F-63" value="1,N&lt;span style=&quot;color: rgba(0, 0, 0, 0); font-family: monospace; font-size: 0px; text-align: start; text-wrap-mode: nowrap;&quot;&gt;%3CmxGraphModel%3E%3Croot%3E%3CmxCell%20id%3D%220%22%2F%3E%3CmxCell%20id%3D%221%22%20parent%3D%220%22%2F%3E%3CmxCell%20id%3D%222%22%20value%3D%22Kart%22%20style%3D%22swimlane%3BchildLayout%3DstackLayout%3Bhorizontal%3D1%3BstartSize%3D50%3BhorizontalStack%3D0%3Brounded%3D1%3BfontSize%3D14%3BfontStyle%3D0%3BstrokeWidth%3D2%3BresizeParent%3D0%3BresizeLast%3D1%3Bshadow%3D0%3Bdashed%3D0%3Balign%3Dcenter%3BarcSize%3D4%3BwhiteSpace%3Dwrap%3Bhtml%3D1%3B%22%20vertex%3D%221%22%20parent%3D%221%22%3E%3CmxGeometry%20x%3D%221205%22%20y%3D%22520%22%20width%3D%22150%22%20height%3D%22120%22%20as%3D%22geometry%22%2F%3E%3C%2FmxCell%3E%3CmxCell%20id%3D%223%22%20value%3D%22Targa%20PK%20FK%26lt%3Bdiv%26gt%3BCodiceFiscale%26lt%3B%2Fdiv%26gt%3B%26lt%3Bdiv%26gt%3BCilindrata%26lt%3B%2Fdiv%26gt%3B%26lt%3Bdiv%26gt%3BSerbatoio%26lt%3B%2Fdiv%26gt%3B%22%20style%3D%22align%3Dleft%3BstrokeColor%3Dnone%3BfillColor%3Dnone%3BspacingLeft%3D4%3BfontSize%3D12%3BverticalAlign%3Dtop%3Bresizable%3D0%3Brotatable%3D0%3Bpart%3D1%3Bhtml%3D1%3B%22%20vertex%3D%221%22%20parent%3D%222%22%3E%3CmxGeometry%20y%3D%2250%22%20width%3D%22150%22%20height%3D%2270%22%20as%3D%22geometry%22%2F%3E%3C%2FmxCell%3E%3C%2Froot%3E%3C%2FmxGraphModel%3E&lt;/span&gt;" style="text;html=1;align=center;verticalAlign=middle;whiteSpace=wrap;rounded=0;" vertex="1" parent="1">
          <mxGeometry x="1123" y="450" width="60" height="30" as="geometry" />
        </mxCell>
        <mxCell id="l6JseUNvl6TW4gJyQg1F-64" value="1,N&lt;span style=&quot;color: rgba(0, 0, 0, 0); font-family: monospace; font-size: 0px; text-align: start; text-wrap-mode: nowrap;&quot;&gt;%3CmxGraphModel%3E%3Croot%3E%3CmxCell%20id%3D%220%22%2F%3E%3CmxCell%20id%3D%221%22%20parent%3D%220%22%2F%3E%3CmxCell%20id%3D%222%22%20value%3D%22Kart%22%20style%3D%22swimlane%3BchildLayout%3DstackLayout%3Bhorizontal%3D1%3BstartSize%3D50%3BhorizontalStack%3D0%3Brounded%3D1%3BfontSize%3D14%3BfontStyle%3D0%3BstrokeWidth%3D2%3BresizeParent%3D0%3BresizeLast%3D1%3Bshadow%3D0%3Bdashed%3D0%3Balign%3Dcenter%3BarcSize%3D4%3BwhiteSpace%3Dwrap%3Bhtml%3D1%3B%22%20vertex%3D%221%22%20parent%3D%221%22%3E%3CmxGeometry%20x%3D%221205%22%20y%3D%22520%22%20width%3D%22150%22%20height%3D%22120%22%20as%3D%22geometry%22%2F%3E%3C%2FmxCell%3E%3CmxCell%20id%3D%223%22%20value%3D%22Targa%20PK%20FK%26lt%3Bdiv%26gt%3BCodiceFiscale%26lt%3B%2Fdiv%26gt%3B%26lt%3Bdiv%26gt%3BCilindrata%26lt%3B%2Fdiv%26gt%3B%26lt%3Bdiv%26gt%3BSerbatoio%26lt%3B%2Fdiv%26gt%3B%22%20style%3D%22align%3Dleft%3BstrokeColor%3Dnone%3BfillColor%3Dnone%3BspacingLeft%3D4%3BfontSize%3D12%3BverticalAlign%3Dtop%3Bresizable%3D0%3Brotatable%3D0%3Bpart%3D1%3Bhtml%3D1%3B%22%20vertex%3D%221%22%20parent%3D%222%22%3E%3CmxGeometry%20y%3D%2250%22%20width%3D%22150%22%20height%3D%2270%22%20as%3D%22geometry%22%2F%3E%3C%2FmxCell%3E%3C%2Froot%3E%3C%2FmxGraphModel%3E&lt;/span&gt;" style="text;html=1;align=center;verticalAlign=middle;whiteSpace=wrap;rounded=0;" vertex="1" parent="1">
          <mxGeometry x="1202" y="387" width="60" height="30" as="geometry" />
        </mxCell>
        <mxCell id="l6JseUNvl6TW4gJyQg1F-65" value="1,N&lt;span style=&quot;color: rgba(0, 0, 0, 0); font-family: monospace; font-size: 0px; text-align: start; text-wrap-mode: nowrap;&quot;&gt;%3CmxGraphModel%3E%3Croot%3E%3CmxCell%20id%3D%220%22%2F%3E%3CmxCell%20id%3D%221%22%20parent%3D%220%22%2F%3E%3CmxCell%20id%3D%222%22%20value%3D%22Kart%22%20style%3D%22swimlane%3BchildLayout%3DstackLayout%3Bhorizontal%3D1%3BstartSize%3D50%3BhorizontalStack%3D0%3Brounded%3D1%3BfontSize%3D14%3BfontStyle%3D0%3BstrokeWidth%3D2%3BresizeParent%3D0%3BresizeLast%3D1%3Bshadow%3D0%3Bdashed%3D0%3Balign%3Dcenter%3BarcSize%3D4%3BwhiteSpace%3Dwrap%3Bhtml%3D1%3B%22%20vertex%3D%221%22%20parent%3D%221%22%3E%3CmxGeometry%20x%3D%221205%22%20y%3D%22520%22%20width%3D%22150%22%20height%3D%22120%22%20as%3D%22geometry%22%2F%3E%3C%2FmxCell%3E%3CmxCell%20id%3D%223%22%20value%3D%22Targa%20PK%20FK%26lt%3Bdiv%26gt%3BCodiceFiscale%26lt%3B%2Fdiv%26gt%3B%26lt%3Bdiv%26gt%3BCilindrata%26lt%3B%2Fdiv%26gt%3B%26lt%3Bdiv%26gt%3BSerbatoio%26lt%3B%2Fdiv%26gt%3B%22%20style%3D%22align%3Dleft%3BstrokeColor%3Dnone%3BfillColor%3Dnone%3BspacingLeft%3D4%3BfontSize%3D12%3BverticalAlign%3Dtop%3Bresizable%3D0%3Brotatable%3D0%3Bpart%3D1%3Bhtml%3D1%3B%22%20vertex%3D%221%22%20parent%3D%222%22%3E%3CmxGeometry%20y%3D%2250%22%20width%3D%22150%22%20height%3D%2270%22%20as%3D%22geometry%22%2F%3E%3C%2FmxCell%3E%3C%2Froot%3E%3C%2FmxGraphModel%3E&lt;/span&gt;" style="text;html=1;align=center;verticalAlign=middle;whiteSpace=wrap;rounded=0;" vertex="1" parent="1">
          <mxGeometry x="1202" y="470" width="60" height="30" as="geometry" />
        </mxCell>
        <mxCell id="l6JseUNvl6TW4gJyQg1F-66" value="1,1" style="text;html=1;align=center;verticalAlign=middle;whiteSpace=wrap;rounded=0;" vertex="1" parent="1">
          <mxGeometry x="1523" y="387" width="60" height="30" as="geometry" />
        </mxCell>
        <mxCell id="l6JseUNvl6TW4gJyQg1F-67" value="1,1" style="text;html=1;align=center;verticalAlign=middle;whiteSpace=wrap;rounded=0;" vertex="1" parent="1">
          <mxGeometry x="1523" y="470" width="60" height="30" as="geometry" />
        </mxCell>
        <mxCell id="l6JseUNvl6TW4gJyQg1F-73" value="" style="endArrow=none;html=1;rounded=0;entryX=0;entryY=1;entryDx=0;entryDy=0;exitX=0.5;exitY=0;exitDx=0;exitDy=0;" edge="1" parent="1" source="l6JseUNvl6TW4gJyQg1F-56" target="l6JseUNvl6TW4gJyQg1F-42">
          <mxGeometry width="50" height="50" relative="1" as="geometry">
            <mxPoint x="1040" y="390" as="sourcePoint" />
            <mxPoint x="1090" y="340" as="targetPoint" />
          </mxGeometry>
        </mxCell>
        <mxCell id="l6JseUNvl6TW4gJyQg1F-75" value="" style="endArrow=none;html=1;rounded=0;entryX=0.5;entryY=1;entryDx=0;entryDy=0;exitX=1;exitY=0.5;exitDx=0;exitDy=0;" edge="1" parent="1" source="l6JseUNvl6TW4gJyQg1F-76" target="l6JseUNvl6TW4gJyQg1F-56">
          <mxGeometry width="50" height="50" relative="1" as="geometry">
            <mxPoint x="980" y="570" as="sourcePoint" />
            <mxPoint x="1090" y="540" as="targetPoint" />
            <Array as="points">
              <mxPoint x="1020" y="570" />
              <mxPoint x="1060" y="570" />
            </Array>
          </mxGeometry>
        </mxCell>
        <mxCell id="l6JseUNvl6TW4gJyQg1F-76" value="Team" style="swimlane;childLayout=stackLayout;horizontal=1;startSize=50;horizontalStack=0;rounded=1;fontSize=14;fontStyle=0;strokeWidth=2;resizeParent=0;resizeLast=1;shadow=0;dashed=0;align=center;arcSize=4;whiteSpace=wrap;html=1;" vertex="1" parent="1">
          <mxGeometry x="520" y="508" width="160" height="120" as="geometry" />
        </mxCell>
        <mxCell id="l6JseUNvl6TW4gJyQg1F-77" value="Nome PK FK&lt;div&gt;Colore&lt;/div&gt;" style="align=left;strokeColor=none;fillColor=none;spacingLeft=4;fontSize=12;verticalAlign=top;resizable=0;rotatable=0;part=1;html=1;" vertex="1" parent="l6JseUNvl6TW4gJyQg1F-76">
          <mxGeometry y="50" width="160" height="70" as="geometry" />
        </mxCell>
        <mxCell id="l6JseUNvl6TW4gJyQg1F-85" value="1,N&lt;span style=&quot;color: rgba(0, 0, 0, 0); font-family: monospace; font-size: 0px; text-align: start; text-wrap-mode: nowrap;&quot;&gt;%3CmxGraphModel%3E%3Croot%3E%3CmxCell%20id%3D%220%22%2F%3E%3CmxCell%20id%3D%221%22%20parent%3D%220%22%2F%3E%3CmxCell%20id%3D%222%22%20value%3D%22Kart%22%20style%3D%22swimlane%3BchildLayout%3DstackLayout%3Bhorizontal%3D1%3BstartSize%3D50%3BhorizontalStack%3D0%3Brounded%3D1%3BfontSize%3D14%3BfontStyle%3D0%3BstrokeWidth%3D2%3BresizeParent%3D0%3BresizeLast%3D1%3Bshadow%3D0%3Bdashed%3D0%3Balign%3Dcenter%3BarcSize%3D4%3BwhiteSpace%3Dwrap%3Bhtml%3D1%3B%22%20vertex%3D%221%22%20parent%3D%221%22%3E%3CmxGeometry%20x%3D%221205%22%20y%3D%22520%22%20width%3D%22150%22%20height%3D%22120%22%20as%3D%22geometry%22%2F%3E%3C%2FmxCell%3E%3CmxCell%20id%3D%223%22%20value%3D%22Targa%20PK%20FK%26lt%3Bdiv%26gt%3BCodiceFiscale%26lt%3B%2Fdiv%26gt%3B%26lt%3Bdiv%26gt%3BCilindrata%26lt%3B%2Fdiv%26gt%3B%26lt%3Bdiv%26gt%3BSerbatoio%26lt%3B%2Fdiv%26gt%3B%22%20style%3D%22align%3Dleft%3BstrokeColor%3Dnone%3BfillColor%3Dnone%3BspacingLeft%3D4%3BfontSize%3D12%3BverticalAlign%3Dtop%3Bresizable%3D0%3Brotatable%3D0%3Bpart%3D1%3Bhtml%3D1%3B%22%20vertex%3D%221%22%20parent%3D%222%22%3E%3CmxGeometry%20y%3D%2250%22%20width%3D%22150%22%20height%3D%2270%22%20as%3D%22geometry%22%2F%3E%3C%2FmxCell%3E%3C%2Froot%3E%3C%2FmxGraphModel%3E&lt;/span&gt;" style="text;html=1;align=center;verticalAlign=middle;whiteSpace=wrap;rounded=0;" vertex="1" parent="1">
          <mxGeometry x="1043" y="387" width="60" height="30" as="geometry" />
        </mxCell>
        <mxCell id="l6JseUNvl6TW4gJyQg1F-86" value="1,N&lt;span style=&quot;color: rgba(0, 0, 0, 0); font-family: monospace; font-size: 0px; text-align: start; text-wrap-mode: nowrap;&quot;&gt;%3CmxGraphModel%3E%3Croot%3E%3CmxCell%20id%3D%220%22%2F%3E%3CmxCell%20id%3D%221%22%20parent%3D%220%22%2F%3E%3CmxCell%20id%3D%222%22%20value%3D%22Kart%22%20style%3D%22swimlane%3BchildLayout%3DstackLayout%3Bhorizontal%3D1%3BstartSize%3D50%3BhorizontalStack%3D0%3Brounded%3D1%3BfontSize%3D14%3BfontStyle%3D0%3BstrokeWidth%3D2%3BresizeParent%3D0%3BresizeLast%3D1%3Bshadow%3D0%3Bdashed%3D0%3Balign%3Dcenter%3BarcSize%3D4%3BwhiteSpace%3Dwrap%3Bhtml%3D1%3B%22%20vertex%3D%221%22%20parent%3D%221%22%3E%3CmxGeometry%20x%3D%221205%22%20y%3D%22520%22%20width%3D%22150%22%20height%3D%22120%22%20as%3D%22geometry%22%2F%3E%3C%2FmxCell%3E%3CmxCell%20id%3D%223%22%20value%3D%22Targa%20PK%20FK%26lt%3Bdiv%26gt%3BCodiceFiscale%26lt%3B%2Fdiv%26gt%3B%26lt%3Bdiv%26gt%3BCilindrata%26lt%3B%2Fdiv%26gt%3B%26lt%3Bdiv%26gt%3BSerbatoio%26lt%3B%2Fdiv%26gt%3B%22%20style%3D%22align%3Dleft%3BstrokeColor%3Dnone%3BfillColor%3Dnone%3BspacingLeft%3D4%3BfontSize%3D12%3BverticalAlign%3Dtop%3Bresizable%3D0%3Brotatable%3D0%3Bpart%3D1%3Bhtml%3D1%3B%22%20vertex%3D%221%22%20parent%3D%222%22%3E%3CmxGeometry%20y%3D%2250%22%20width%3D%22150%22%20height%3D%2270%22%20as%3D%22geometry%22%2F%3E%3C%2FmxCell%3E%3C%2Froot%3E%3C%2FmxGraphModel%3E&lt;/span&gt;" style="text;html=1;align=center;verticalAlign=middle;whiteSpace=wrap;rounded=0;" vertex="1" parent="1">
          <mxGeometry x="1042" y="470" width="60" height="30" as="geometry" />
        </mxCell>
        <mxCell id="l6JseUNvl6TW4gJyQg1F-91" value="prenota" style="shape=rhombus;perimeter=rhombusPerimeter;whiteSpace=wrap;html=1;align=center;" vertex="1" parent="1">
          <mxGeometry x="860" y="110" width="120" height="60" as="geometry" />
        </mxCell>
        <mxCell id="l6JseUNvl6TW4gJyQg1F-92" value="" style="endArrow=none;html=1;rounded=0;entryX=0.5;entryY=0;entryDx=0;entryDy=0;exitX=1;exitY=0.5;exitDx=0;exitDy=0;" edge="1" parent="1" source="l6JseUNvl6TW4gJyQg1F-91" target="l6JseUNvl6TW4gJyQg1F-42">
          <mxGeometry width="50" height="50" relative="1" as="geometry">
            <mxPoint x="1140" y="80" as="sourcePoint" />
            <mxPoint x="950" y="400" as="targetPoint" />
            <Array as="points">
              <mxPoint x="1140" y="140" />
            </Array>
          </mxGeometry>
        </mxCell>
        <mxCell id="l6JseUNvl6TW4gJyQg1F-93" value="" style="endArrow=none;html=1;rounded=0;entryX=0;entryY=0.5;entryDx=0;entryDy=0;" edge="1" parent="1" source="l6JseUNvl6TW4gJyQg1F-94" target="l6JseUNvl6TW4gJyQg1F-91">
          <mxGeometry width="50" height="50" relative="1" as="geometry">
            <mxPoint x="410" y="760" as="sourcePoint" />
            <mxPoint x="950" y="400" as="targetPoint" />
            <Array as="points">
              <mxPoint x="300" y="140" />
            </Array>
          </mxGeometry>
        </mxCell>
        <mxCell id="l6JseUNvl6TW4gJyQg1F-94" value="Prenotazione" style="swimlane;childLayout=stackLayout;horizontal=1;startSize=50;horizontalStack=0;rounded=1;fontSize=14;fontStyle=0;strokeWidth=2;resizeParent=0;resizeLast=1;shadow=0;dashed=0;align=center;arcSize=4;whiteSpace=wrap;html=1;" vertex="1" parent="1">
          <mxGeometry x="230" y="640" width="160" height="180" as="geometry" />
        </mxCell>
        <mxCell id="l6JseUNvl6TW4gJyQg1F-95" value="&lt;div&gt;idP&amp;nbsp; pk&lt;/div&gt;&lt;div&gt;dataG&lt;/div&gt;&lt;div&gt;fasciaO&lt;/div&gt;&lt;div&gt;tipologi&lt;/div&gt;&lt;div&gt;costo&lt;/div&gt;" style="align=left;strokeColor=none;fillColor=none;spacingLeft=4;fontSize=12;verticalAlign=top;resizable=0;rotatable=0;part=1;html=1;" vertex="1" parent="l6JseUNvl6TW4gJyQg1F-94">
          <mxGeometry y="50" width="160" height="130" as="geometry" />
        </mxCell>
        <mxCell id="l6JseUNvl6TW4gJyQg1F-96" value="1,N&lt;span style=&quot;color: rgba(0, 0, 0, 0); font-family: monospace; font-size: 0px; text-align: start; text-wrap-mode: nowrap;&quot;&gt;%3CmxGraphModel%3E%3Croot%3E%3CmxCell%20id%3D%220%22%2F%3E%3CmxCell%20id%3D%221%22%20parent%3D%220%22%2F%3E%3CmxCell%20id%3D%222%22%20value%3D%22Kart%22%20style%3D%22swimlane%3BchildLayout%3DstackLayout%3Bhorizontal%3D1%3BstartSize%3D50%3BhorizontalStack%3D0%3Brounded%3D1%3BfontSize%3D14%3BfontStyle%3D0%3BstrokeWidth%3D2%3BresizeParent%3D0%3BresizeLast%3D1%3Bshadow%3D0%3Bdashed%3D0%3Balign%3Dcenter%3BarcSize%3D4%3BwhiteSpace%3Dwrap%3Bhtml%3D1%3B%22%20vertex%3D%221%22%20parent%3D%221%22%3E%3CmxGeometry%20x%3D%221205%22%20y%3D%22520%22%20width%3D%22150%22%20height%3D%22120%22%20as%3D%22geometry%22%2F%3E%3C%2FmxCell%3E%3CmxCell%20id%3D%223%22%20value%3D%22Targa%20PK%20FK%26lt%3Bdiv%26gt%3BCodiceFiscale%26lt%3B%2Fdiv%26gt%3B%26lt%3Bdiv%26gt%3BCilindrata%26lt%3B%2Fdiv%26gt%3B%26lt%3Bdiv%26gt%3BSerbatoio%26lt%3B%2Fdiv%26gt%3B%22%20style%3D%22align%3Dleft%3BstrokeColor%3Dnone%3BfillColor%3Dnone%3BspacingLeft%3D4%3BfontSize%3D12%3BverticalAlign%3Dtop%3Bresizable%3D0%3Brotatable%3D0%3Bpart%3D1%3Bhtml%3D1%3B%22%20vertex%3D%221%22%20parent%3D%222%22%3E%3CmxGeometry%20y%3D%2250%22%20width%3D%22150%22%20height%3D%2270%22%20as%3D%22geometry%22%2F%3E%3C%2FmxCell%3E%3C%2Froot%3E%3C%2FmxGraphModel%3E&lt;/span&gt;" style="text;html=1;align=center;verticalAlign=middle;whiteSpace=wrap;rounded=0;" vertex="1" parent="1">
          <mxGeometry x="960" y="110" width="60" height="30" as="geometry" />
        </mxCell>
        <mxCell id="l6JseUNvl6TW4gJyQg1F-97" value="1,N&lt;span style=&quot;color: rgba(0, 0, 0, 0); font-family: monospace; font-size: 0px; text-align: start; text-wrap-mode: nowrap;&quot;&gt;%3CmxGraphModel%3E%3Croot%3E%3CmxCell%20id%3D%220%22%2F%3E%3CmxCell%20id%3D%221%22%20parent%3D%220%22%2F%3E%3CmxCell%20id%3D%222%22%20value%3D%22Kart%22%20style%3D%22swimlane%3BchildLayout%3DstackLayout%3Bhorizontal%3D1%3BstartSize%3D50%3BhorizontalStack%3D0%3Brounded%3D1%3BfontSize%3D14%3BfontStyle%3D0%3BstrokeWidth%3D2%3BresizeParent%3D0%3BresizeLast%3D1%3Bshadow%3D0%3Bdashed%3D0%3Balign%3Dcenter%3BarcSize%3D4%3BwhiteSpace%3Dwrap%3Bhtml%3D1%3B%22%20vertex%3D%221%22%20parent%3D%221%22%3E%3CmxGeometry%20x%3D%221205%22%20y%3D%22520%22%20width%3D%22150%22%20height%3D%22120%22%20as%3D%22geometry%22%2F%3E%3C%2FmxCell%3E%3CmxCell%20id%3D%223%22%20value%3D%22Targa%20PK%20FK%26lt%3Bdiv%26gt%3BCodiceFiscale%26lt%3B%2Fdiv%26gt%3B%26lt%3Bdiv%26gt%3BCilindrata%26lt%3B%2Fdiv%26gt%3B%26lt%3Bdiv%26gt%3BSerbatoio%26lt%3B%2Fdiv%26gt%3B%22%20style%3D%22align%3Dleft%3BstrokeColor%3Dnone%3BfillColor%3Dnone%3BspacingLeft%3D4%3BfontSize%3D12%3BverticalAlign%3Dtop%3Bresizable%3D0%3Brotatable%3D0%3Bpart%3D1%3Bhtml%3D1%3B%22%20vertex%3D%221%22%20parent%3D%222%22%3E%3CmxGeometry%20y%3D%2250%22%20width%3D%22150%22%20height%3D%2270%22%20as%3D%22geometry%22%2F%3E%3C%2FmxCell%3E%3C%2Froot%3E%3C%2FmxGraphModel%3E&lt;/span&gt;" style="text;html=1;align=center;verticalAlign=middle;whiteSpace=wrap;rounded=0;" vertex="1" parent="1">
          <mxGeometry x="810" y="110" width="60" height="30" as="geometry" />
        </mxCell>
        <mxCell id="l6JseUNvl6TW4gJyQg1F-98" value="Creano" style="shape=rhombus;perimeter=rhombusPerimeter;whiteSpace=wrap;html=1;align=center;" vertex="1" parent="1">
          <mxGeometry x="250" y="880" width="120" height="60" as="geometry" />
        </mxCell>
        <mxCell id="l6JseUNvl6TW4gJyQg1F-99" value="" style="endArrow=none;html=1;rounded=0;exitX=0.5;exitY=1;exitDx=0;exitDy=0;entryX=0.5;entryY=0;entryDx=0;entryDy=0;" edge="1" parent="1" source="l6JseUNvl6TW4gJyQg1F-95" target="l6JseUNvl6TW4gJyQg1F-98">
          <mxGeometry width="50" height="50" relative="1" as="geometry">
            <mxPoint x="520" y="920" as="sourcePoint" />
            <mxPoint x="570" y="870" as="targetPoint" />
          </mxGeometry>
        </mxCell>
        <mxCell id="l6JseUNvl6TW4gJyQg1F-100" value="Gara" style="swimlane;childLayout=stackLayout;horizontal=1;startSize=50;horizontalStack=0;rounded=1;fontSize=14;fontStyle=0;strokeWidth=2;resizeParent=0;resizeLast=1;shadow=0;dashed=0;align=center;arcSize=4;whiteSpace=wrap;html=1;" vertex="1" parent="1">
          <mxGeometry x="460" y="843" width="160" height="120" as="geometry" />
        </mxCell>
        <mxCell id="l6JseUNvl6TW4gJyQg1F-101" value="IDgara PK&lt;div&gt;Ora&lt;/div&gt;&lt;div&gt;&lt;br&gt;&lt;/div&gt;" style="align=left;strokeColor=none;fillColor=none;spacingLeft=4;fontSize=12;verticalAlign=top;resizable=0;rotatable=0;part=1;html=1;" vertex="1" parent="l6JseUNvl6TW4gJyQg1F-100">
          <mxGeometry y="50" width="160" height="70" as="geometry" />
        </mxCell>
        <mxCell id="l6JseUNvl6TW4gJyQg1F-102" value="" style="endArrow=none;html=1;rounded=0;exitX=1;exitY=0.5;exitDx=0;exitDy=0;entryX=0;entryY=0.25;entryDx=0;entryDy=0;" edge="1" parent="1" source="l6JseUNvl6TW4gJyQg1F-98" target="l6JseUNvl6TW4gJyQg1F-101">
          <mxGeometry width="50" height="50" relative="1" as="geometry">
            <mxPoint x="510" y="900" as="sourcePoint" />
            <mxPoint x="560" y="850" as="targetPoint" />
          </mxGeometry>
        </mxCell>
        <mxCell id="l6JseUNvl6TW4gJyQg1F-103" value="1,N&lt;span style=&quot;color: rgba(0, 0, 0, 0); font-family: monospace; font-size: 0px; text-align: start; text-wrap-mode: nowrap;&quot;&gt;%3CmxGraphModel%3E%3Croot%3E%3CmxCell%20id%3D%220%22%2F%3E%3CmxCell%20id%3D%221%22%20parent%3D%220%22%2F%3E%3CmxCell%20id%3D%222%22%20value%3D%22Kart%22%20style%3D%22swimlane%3BchildLayout%3DstackLayout%3Bhorizontal%3D1%3BstartSize%3D50%3BhorizontalStack%3D0%3Brounded%3D1%3BfontSize%3D14%3BfontStyle%3D0%3BstrokeWidth%3D2%3BresizeParent%3D0%3BresizeLast%3D1%3Bshadow%3D0%3Bdashed%3D0%3Balign%3Dcenter%3BarcSize%3D4%3BwhiteSpace%3Dwrap%3Bhtml%3D1%3B%22%20vertex%3D%221%22%20parent%3D%221%22%3E%3CmxGeometry%20x%3D%221205%22%20y%3D%22520%22%20width%3D%22150%22%20height%3D%22120%22%20as%3D%22geometry%22%2F%3E%3C%2FmxCell%3E%3CmxCell%20id%3D%223%22%20value%3D%22Targa%20PK%20FK%26lt%3Bdiv%26gt%3BCodiceFiscale%26lt%3B%2Fdiv%26gt%3B%26lt%3Bdiv%26gt%3BCilindrata%26lt%3B%2Fdiv%26gt%3B%26lt%3Bdiv%26gt%3BSerbatoio%26lt%3B%2Fdiv%26gt%3B%22%20style%3D%22align%3Dleft%3BstrokeColor%3Dnone%3BfillColor%3Dnone%3BspacingLeft%3D4%3BfontSize%3D12%3BverticalAlign%3Dtop%3Bresizable%3D0%3Brotatable%3D0%3Bpart%3D1%3Bhtml%3D1%3B%22%20vertex%3D%221%22%20parent%3D%222%22%3E%3CmxGeometry%20y%3D%2250%22%20width%3D%22150%22%20height%3D%2270%22%20as%3D%22geometry%22%2F%3E%3C%2FmxCell%3E%3C%2Froot%3E%3C%2FmxGraphModel%3E&lt;/span&gt;" style="text;html=1;align=center;verticalAlign=middle;whiteSpace=wrap;rounded=0;" vertex="1" parent="1">
          <mxGeometry x="380" y="888" width="60" height="30" as="geometry" />
        </mxCell>
        <mxCell id="l6JseUNvl6TW4gJyQg1F-105" value="1,1" style="text;html=1;align=center;verticalAlign=middle;whiteSpace=wrap;rounded=0;" vertex="1" parent="1">
          <mxGeometry x="300" y="858" width="60" height="30" as="geometry" />
        </mxCell>
        <mxCell id="l6JseUNvl6TW4gJyQg1F-108" value="Secca" style="swimlane;childLayout=stackLayout;horizontal=1;startSize=50;horizontalStack=0;rounded=1;fontSize=14;fontStyle=0;strokeWidth=2;resizeParent=0;resizeLast=1;shadow=0;dashed=0;align=center;arcSize=4;whiteSpace=wrap;html=1;" vertex="1" parent="1">
          <mxGeometry x="560" y="1038" width="160" height="140" as="geometry" />
        </mxCell>
        <mxCell id="l6JseUNvl6TW4gJyQg1F-109" value="bTempo" style="align=left;strokeColor=none;fillColor=none;spacingLeft=4;fontSize=12;verticalAlign=top;resizable=0;rotatable=0;part=1;html=1;" vertex="1" parent="l6JseUNvl6TW4gJyQg1F-108">
          <mxGeometry y="50" width="160" height="90" as="geometry" />
        </mxCell>
        <mxCell id="l6JseUNvl6TW4gJyQg1F-110" value="Libera" style="swimlane;childLayout=stackLayout;horizontal=1;startSize=50;horizontalStack=0;rounded=1;fontSize=14;fontStyle=0;strokeWidth=2;resizeParent=0;resizeLast=1;shadow=0;dashed=0;align=center;arcSize=4;whiteSpace=wrap;html=1;" vertex="1" parent="1">
          <mxGeometry x="360" y="1040" width="160" height="140" as="geometry" />
        </mxCell>
        <mxCell id="l6JseUNvl6TW4gJyQg1F-114" value="" style="endArrow=classic;html=1;rounded=0;exitX=0.5;exitY=1;exitDx=0;exitDy=0;entryX=0;entryY=0.25;entryDx=0;entryDy=0;" edge="1" parent="1" source="l6JseUNvl6TW4gJyQg1F-101" target="l6JseUNvl6TW4gJyQg1F-109">
          <mxGeometry width="50" height="50" relative="1" as="geometry">
            <mxPoint x="750" y="1040" as="sourcePoint" />
            <mxPoint x="540" y="1150" as="targetPoint" />
            <Array as="points">
              <mxPoint x="540" y="1110" />
            </Array>
          </mxGeometry>
        </mxCell>
        <mxCell id="l6JseUNvl6TW4gJyQg1F-115" value="" style="endArrow=classic;html=1;rounded=0;exitX=0.5;exitY=1;exitDx=0;exitDy=0;entryX=1;entryY=0.5;entryDx=0;entryDy=0;" edge="1" parent="1" source="l6JseUNvl6TW4gJyQg1F-101" target="l6JseUNvl6TW4gJyQg1F-110">
          <mxGeometry width="50" height="50" relative="1" as="geometry">
            <mxPoint x="750" y="1040" as="sourcePoint" />
            <mxPoint x="540" y="1200" as="targetPoint" />
            <Array as="points">
              <mxPoint x="540" y="1110" />
            </Array>
          </mxGeometry>
        </mxCell>
        <mxCell id="l6JseUNvl6TW4gJyQg1F-118" value="Partecipa" style="shape=rhombus;perimeter=rhombusPerimeter;whiteSpace=wrap;html=1;align=center;" vertex="1" parent="1">
          <mxGeometry x="810" y="1081" width="120" height="60" as="geometry" />
        </mxCell>
        <mxCell id="l6JseUNvl6TW4gJyQg1F-119" value="" style="endArrow=none;html=1;rounded=0;exitX=1;exitY=0.25;exitDx=0;exitDy=0;entryX=0;entryY=0.5;entryDx=0;entryDy=0;" edge="1" parent="1" source="l6JseUNvl6TW4gJyQg1F-109" target="l6JseUNvl6TW4gJyQg1F-118">
          <mxGeometry width="50" height="50" relative="1" as="geometry">
            <mxPoint x="780" y="950" as="sourcePoint" />
            <mxPoint x="830" y="900" as="targetPoint" />
          </mxGeometry>
        </mxCell>
        <mxCell id="l6JseUNvl6TW4gJyQg1F-120" value="Campionato" style="swimlane;childLayout=stackLayout;horizontal=1;startSize=50;horizontalStack=0;rounded=1;fontSize=14;fontStyle=0;strokeWidth=2;resizeParent=0;resizeLast=1;shadow=0;dashed=0;align=center;arcSize=4;whiteSpace=wrap;html=1;" vertex="1" parent="1">
          <mxGeometry x="1010" y="1038" width="160" height="140" as="geometry" />
        </mxCell>
        <mxCell id="l6JseUNvl6TW4gJyQg1F-121" value="IDcampionato PK FK&lt;div&gt;Anno&lt;/div&gt;&lt;div&gt;cilindrata&lt;/div&gt;" style="align=left;strokeColor=none;fillColor=none;spacingLeft=4;fontSize=12;verticalAlign=top;resizable=0;rotatable=0;part=1;html=1;" vertex="1" parent="l6JseUNvl6TW4gJyQg1F-120">
          <mxGeometry y="50" width="160" height="90" as="geometry" />
        </mxCell>
        <mxCell id="l6JseUNvl6TW4gJyQg1F-122" value="" style="endArrow=none;html=1;rounded=0;exitX=1;exitY=0.5;exitDx=0;exitDy=0;entryX=0;entryY=0.25;entryDx=0;entryDy=0;" edge="1" parent="1" source="l6JseUNvl6TW4gJyQg1F-118" target="l6JseUNvl6TW4gJyQg1F-121">
          <mxGeometry width="50" height="50" relative="1" as="geometry">
            <mxPoint x="780" y="950" as="sourcePoint" />
            <mxPoint x="830" y="900" as="targetPoint" />
          </mxGeometry>
        </mxCell>
        <mxCell id="l6JseUNvl6TW4gJyQg1F-123" value="1,N&lt;span style=&quot;color: rgba(0, 0, 0, 0); font-family: monospace; font-size: 0px; text-align: start; text-wrap-mode: nowrap;&quot;&gt;%3CmxGraphModel%3E%3Croot%3E%3CmxCell%20id%3D%220%22%2F%3E%3CmxCell%20id%3D%221%22%20parent%3D%220%22%2F%3E%3CmxCell%20id%3D%222%22%20value%3D%22Kart%22%20style%3D%22swimlane%3BchildLayout%3DstackLayout%3Bhorizontal%3D1%3BstartSize%3D50%3BhorizontalStack%3D0%3Brounded%3D1%3BfontSize%3D14%3BfontStyle%3D0%3BstrokeWidth%3D2%3BresizeParent%3D0%3BresizeLast%3D1%3Bshadow%3D0%3Bdashed%3D0%3Balign%3Dcenter%3BarcSize%3D4%3BwhiteSpace%3Dwrap%3Bhtml%3D1%3B%22%20vertex%3D%221%22%20parent%3D%221%22%3E%3CmxGeometry%20x%3D%221205%22%20y%3D%22520%22%20width%3D%22150%22%20height%3D%22120%22%20as%3D%22geometry%22%2F%3E%3C%2FmxCell%3E%3CmxCell%20id%3D%223%22%20value%3D%22Targa%20PK%20FK%26lt%3Bdiv%26gt%3BCodiceFiscale%26lt%3B%2Fdiv%26gt%3B%26lt%3Bdiv%26gt%3BCilindrata%26lt%3B%2Fdiv%26gt%3B%26lt%3Bdiv%26gt%3BSerbatoio%26lt%3B%2Fdiv%26gt%3B%22%20style%3D%22align%3Dleft%3BstrokeColor%3Dnone%3BfillColor%3Dnone%3BspacingLeft%3D4%3BfontSize%3D12%3BverticalAlign%3Dtop%3Bresizable%3D0%3Brotatable%3D0%3Bpart%3D1%3Bhtml%3D1%3B%22%20vertex%3D%221%22%20parent%3D%222%22%3E%3CmxGeometry%20y%3D%2250%22%20width%3D%22150%22%20height%3D%2270%22%20as%3D%22geometry%22%2F%3E%3C%2FmxCell%3E%3C%2Froot%3E%3C%2FmxGraphModel%3E&lt;/span&gt;" style="text;html=1;align=center;verticalAlign=middle;whiteSpace=wrap;rounded=0;" vertex="1" parent="1">
          <mxGeometry x="770" y="1090" width="60" height="30" as="geometry" />
        </mxCell>
        <mxCell id="l6JseUNvl6TW4gJyQg1F-124" value="1,N&lt;span style=&quot;color: rgba(0, 0, 0, 0); font-family: monospace; font-size: 0px; text-align: start; text-wrap-mode: nowrap;&quot;&gt;%3CmxGraphModel%3E%3Croot%3E%3CmxCell%20id%3D%220%22%2F%3E%3CmxCell%20id%3D%221%22%20parent%3D%220%22%2F%3E%3CmxCell%20id%3D%222%22%20value%3D%22Kart%22%20style%3D%22swimlane%3BchildLayout%3DstackLayout%3Bhorizontal%3D1%3BstartSize%3D50%3BhorizontalStack%3D0%3Brounded%3D1%3BfontSize%3D14%3BfontStyle%3D0%3BstrokeWidth%3D2%3BresizeParent%3D0%3BresizeLast%3D1%3Bshadow%3D0%3Bdashed%3D0%3Balign%3Dcenter%3BarcSize%3D4%3BwhiteSpace%3Dwrap%3Bhtml%3D1%3B%22%20vertex%3D%221%22%20parent%3D%221%22%3E%3CmxGeometry%20x%3D%221205%22%20y%3D%22520%22%20width%3D%22150%22%20height%3D%22120%22%20as%3D%22geometry%22%2F%3E%3C%2FmxCell%3E%3CmxCell%20id%3D%223%22%20value%3D%22Targa%20PK%20FK%26lt%3Bdiv%26gt%3BCodiceFiscale%26lt%3B%2Fdiv%26gt%3B%26lt%3Bdiv%26gt%3BCilindrata%26lt%3B%2Fdiv%26gt%3B%26lt%3Bdiv%26gt%3BSerbatoio%26lt%3B%2Fdiv%26gt%3B%22%20style%3D%22align%3Dleft%3BstrokeColor%3Dnone%3BfillColor%3Dnone%3BspacingLeft%3D4%3BfontSize%3D12%3BverticalAlign%3Dtop%3Bresizable%3D0%3Brotatable%3D0%3Bpart%3D1%3Bhtml%3D1%3B%22%20vertex%3D%221%22%20parent%3D%222%22%3E%3CmxGeometry%20y%3D%2250%22%20width%3D%22150%22%20height%3D%2270%22%20as%3D%22geometry%22%2F%3E%3C%2FmxCell%3E%3C%2Froot%3E%3C%2FmxGraphModel%3E&lt;/span&gt;" style="text;html=1;align=center;verticalAlign=middle;whiteSpace=wrap;rounded=0;" vertex="1" parent="1">
          <mxGeometry x="920" y="1090" width="60" height="30" as="geometry" />
        </mxCell>
        <mxCell id="ubYN3ru_qhW8qGGhlSag-20" value="1,N" style="text;html=1;align=center;verticalAlign=middle;resizable=0;points=[];autosize=1;strokeColor=none;fillColor=none;" vertex="1" parent="1">
          <mxGeometry x="1960" y="670" width="40" height="30" as="geometry" />
        </mxCell>
        <mxCell id="WOkELZSfn5BBf-N6y4uy-3" value="classifica" style="rhombus;whiteSpace=wrap;html=1;" vertex="1" parent="1">
          <mxGeometry x="1060" y="833" width="80" height="80" as="geometry" />
        </mxCell>
        <mxCell id="WOkELZSfn5BBf-N6y4uy-4" value="" style="endArrow=none;html=1;rounded=0;entryX=0;entryY=0.5;entryDx=0;entryDy=0;exitX=1;exitY=0.25;exitDx=0;exitDy=0;" edge="1" parent="1" source="l6JseUNvl6TW4gJyQg1F-100" target="WOkELZSfn5BBf-N6y4uy-3">
          <mxGeometry width="50" height="50" relative="1" as="geometry">
            <mxPoint x="720" y="940" as="sourcePoint" />
            <mxPoint x="770" y="890" as="targetPoint" />
          </mxGeometry>
        </mxCell>
        <mxCell id="WOkELZSfn5BBf-N6y4uy-5" value="" style="endArrow=none;html=1;rounded=0;exitX=1;exitY=0.5;exitDx=0;exitDy=0;entryX=0.25;entryY=1;entryDx=0;entryDy=0;" edge="1" parent="1" source="WOkELZSfn5BBf-N6y4uy-3" target="l6JseUNvl6TW4gJyQg1F-39">
          <mxGeometry width="50" height="50" relative="1" as="geometry">
            <mxPoint x="1165" y="890" as="sourcePoint" />
            <mxPoint x="1980" y="1003" as="targetPoint" />
            <Array as="points">
              <mxPoint x="1580" y="873" />
              <mxPoint x="1903" y="873" />
            </Array>
          </mxGeometry>
        </mxCell>
        <mxCell id="WOkELZSfn5BBf-N6y4uy-6" value="" style="endArrow=none;html=1;rounded=0;exitX=0.5;exitY=0;exitDx=0;exitDy=0;entryX=0.25;entryY=1;entryDx=0;entryDy=0;" edge="1" parent="1" source="WOkELZSfn5BBf-N6y4uy-3" target="l6JseUNvl6TW4gJyQg1F-42">
          <mxGeometry width="50" height="50" relative="1" as="geometry">
            <mxPoint x="710" y="1070" as="sourcePoint" />
            <mxPoint x="1070" y="710" as="targetPoint" />
          </mxGeometry>
        </mxCell>
        <mxCell id="WOkELZSfn5BBf-N6y4uy-7" value="1,N" style="text;html=1;align=center;verticalAlign=middle;resizable=0;points=[];autosize=1;strokeColor=none;fillColor=none;" vertex="1" parent="1">
          <mxGeometry x="630" y="828" width="40" height="30" as="geometry" />
        </mxCell>
        <mxCell id="WOkELZSfn5BBf-N6y4uy-8" value="1,N" style="text;html=1;align=center;verticalAlign=middle;resizable=0;points=[];autosize=1;strokeColor=none;fillColor=none;" vertex="1" parent="1">
          <mxGeometry x="1810" y="628" width="40" height="30" as="geometry" />
        </mxCell>
        <mxCell id="WOkELZSfn5BBf-N6y4uy-9" value="1,N" style="text;html=1;align=center;verticalAlign=middle;resizable=0;points=[];autosize=1;strokeColor=none;fillColor=none;" vertex="1" parent="1">
          <mxGeometry x="1060" y="348" width="40" height="30" as="geometry" />
        </mxCell>
        <mxCell id="WOkELZSfn5BBf-N6y4uy-11" value="" style="endArrow=none;html=1;rounded=0;exitX=1;exitY=1;exitDx=0;exitDy=0;entryX=0.118;entryY=-0.136;entryDx=0;entryDy=0;entryPerimeter=0;" edge="1" parent="1" source="WOkELZSfn5BBf-N6y4uy-3" target="WOkELZSfn5BBf-N6y4uy-12">
          <mxGeometry width="50" height="50" relative="1" as="geometry">
            <mxPoint x="1100" y="858" as="sourcePoint" />
            <mxPoint x="1140" y="830" as="targetPoint" />
          </mxGeometry>
        </mxCell>
        <mxCell id="WOkELZSfn5BBf-N6y4uy-12" value="bGiro&lt;div&gt;tempTot&lt;/div&gt;" style="text;html=1;align=center;verticalAlign=middle;resizable=0;points=[];autosize=1;strokeColor=none;fillColor=none;" vertex="1" parent="1">
          <mxGeometry x="1160" y="950" width="70" height="40" as="geometry" />
        </mxCell>
        <mxCell id="WOkELZSfn5BBf-N6y4uy-13" value="" style="endArrow=none;html=1;rounded=0;entryX=0.188;entryY=0.84;entryDx=0;entryDy=0;entryPerimeter=0;" edge="1" parent="1" target="WOkELZSfn5BBf-N6y4uy-14">
          <mxGeometry width="50" height="50" relative="1" as="geometry">
            <mxPoint x="1250" y="430" as="sourcePoint" />
            <mxPoint x="1300" y="380" as="targetPoint" />
          </mxGeometry>
        </mxCell>
        <mxCell id="WOkELZSfn5BBf-N6y4uy-14" value="data" style="text;html=1;align=center;verticalAlign=middle;resizable=0;points=[];autosize=1;strokeColor=none;fillColor=none;" vertex="1" parent="1">
          <mxGeometry x="1275" y="388" width="50" height="30" as="geometry" />
        </mxCell>
        <mxCell id="WOkELZSfn5BBf-N6y4uy-15" value="" style="endArrow=none;html=1;rounded=0;" edge="1" parent="1">
          <mxGeometry width="50" height="50" relative="1" as="geometry">
            <mxPoint x="919.33" y="110" as="sourcePoint" />
            <mxPoint x="919.33" y="70" as="targetPoint" />
          </mxGeometry>
        </mxCell>
        <mxCell id="WOkELZSfn5BBf-N6y4uy-16" value="data" style="text;html=1;align=center;verticalAlign=middle;resizable=0;points=[];autosize=1;strokeColor=none;fillColor=none;" vertex="1" parent="1">
          <mxGeometry x="895" y="50" width="50" height="30" as="geometry" />
        </mxCell>
      </root>
    </mxGraphModel>
  </diagram>
</mxfile>
